<svg xmlns="http://www.w3.org/2000/svg" width="940" height="520" viewBox="0 0 940 520">
<rect width="100%" height="100%" fill="#ffffff"/>
<text x="80" y="38" font-size="24" font-weight="700" fill="#222">Locate: layer-wise opinion-minus-answer profile</text>
<text x="22" y="260.0" transform="rotate(-90 22 260.0)" font-size="14" fill="#555">p(opinion) - p(answer)</text>
<line x1="80" y1="450.0" x2="900" y2="450.0" stroke="#e8e8e8"/>
<text x="70" y="455.0" text-anchor="end" font-size="12" fill="#666">-0.48</text>
<line x1="80" y1="374.0" x2="900" y2="374.0" stroke="#e8e8e8"/>
<text x="70" y="379.0" text-anchor="end" font-size="12" fill="#666">-0.37</text>
<line x1="80" y1="298.0" x2="900" y2="298.0" stroke="#e8e8e8"/>
<text x="70" y="303.0" text-anchor="end" font-size="12" fill="#666">-0.26</text>
<line x1="80" y1="222.0" x2="900" y2="222.0" stroke="#e8e8e8"/>
<text x="70" y="227.0" text-anchor="end" font-size="12" fill="#666">-0.14</text>
<line x1="80" y1="146.0" x2="900" y2="146.0" stroke="#e8e8e8"/>
<text x="70" y="151.0" text-anchor="end" font-size="12" fill="#666">-0.03</text>
<line x1="80" y1="70.0" x2="900" y2="70.0" stroke="#e8e8e8"/>
<text x="70" y="75.0" text-anchor="end" font-size="12" fill="#666">0.08</text>
<text x="80.0" y="486" text-anchor="middle" font-size="11" fill="#666">0</text>
<text x="110.4" y="486" text-anchor="middle" font-size="11" fill="#666">1</text>
<text x="140.7" y="486" text-anchor="middle" font-size="11" fill="#666">2</text>
<text x="171.1" y="486" text-anchor="middle" font-size="11" fill="#666">3</text>
<text x="201.5" y="486" text-anchor="middle" font-size="11" fill="#666">4</text>
<text x="231.9" y="486" text-anchor="middle" font-size="11" fill="#666">5</text>
<text x="262.2" y="486" text-anchor="middle" font-size="11" fill="#666">6</text>
<text x="292.6" y="486" text-anchor="middle" font-size="11" fill="#666">7</text>
<text x="323.0" y="486" text-anchor="middle" font-size="11" fill="#666">8</text>
<text x="353.3" y="486" text-anchor="middle" font-size="11" fill="#666">9</text>
<text x="383.7" y="486" text-anchor="middle" font-size="11" fill="#666">10</text>
<text x="414.1" y="486" text-anchor="middle" font-size="11" fill="#666">11</text>
<text x="444.4" y="486" text-anchor="middle" font-size="11" fill="#666">12</text>
<text x="474.8" y="486" text-anchor="middle" font-size="11" fill="#666">13</text>
<text x="505.2" y="486" text-anchor="middle" font-size="11" fill="#666">14</text>
<text x="535.6" y="486" text-anchor="middle" font-size="11" fill="#666">15</text>
<text x="565.9" y="486" text-anchor="middle" font-size="11" fill="#666">16</text>
<text x="596.3" y="486" text-anchor="middle" font-size="11" fill="#666">17</text>
<text x="626.7" y="486" text-anchor="middle" font-size="11" fill="#666">18</text>
<text x="657.0" y="486" text-anchor="middle" font-size="11" fill="#666">19</text>
<text x="687.4" y="486" text-anchor="middle" font-size="11" fill="#666">20</text>
<text x="717.8" y="486" text-anchor="middle" font-size="11" fill="#666">21</text>
<text x="748.1" y="486" text-anchor="middle" font-size="11" fill="#666">22</text>
<text x="778.5" y="486" text-anchor="middle" font-size="11" fill="#666">23</text>
<text x="808.9" y="486" text-anchor="middle" font-size="11" fill="#666">24</text>
<text x="839.3" y="486" text-anchor="middle" font-size="11" fill="#666">25</text>
<text x="869.6" y="486" text-anchor="middle" font-size="11" fill="#666">26</text>
<text x="900.0" y="486" text-anchor="middle" font-size="11" fill="#666">27</text>
<polyline points="80.0,109.1 110.4,110.7 140.7,109.4 171.1,109.0 201.5,109.5 231.9,111.8 262.2,112.1 292.6,119.7 323.0,109.4 353.3,111.8 383.7,119.0 414.1,121.7 444.4,122.2 474.8,122.7 505.2,121.6 535.6,112.9 565.9,110.6 596.3,110.9 626.7,112.0 657.0,115.2 687.4,127.3 717.8,195.0 748.1,218.1 778.5,217.9 808.9,213.4 839.3,223.4 869.6,222.1 900.0,223.9" fill="none" stroke="#B33A3A" stroke-width="3"/>
<circle cx="80.0" cy="109.1" r="3.5" fill="#B33A3A"/>
<circle cx="110.4" cy="110.7" r="3.5" fill="#B33A3A"/>
<circle cx="140.7" cy="109.4" r="3.5" fill="#B33A3A"/>
<circle cx="171.1" cy="109.0" r="3.5" fill="#B33A3A"/>
<circle cx="201.5" cy="109.5" r="3.5" fill="#B33A3A"/>
<circle cx="231.9" cy="111.8" r="3.5" fill="#B33A3A"/>
<circle cx="262.2" cy="112.1" r="3.5" fill="#B33A3A"/>
<circle cx="292.6" cy="119.7" r="3.5" fill="#B33A3A"/>
<circle cx="323.0" cy="109.4" r="3.5" fill="#B33A3A"/>
<circle cx="353.3" cy="111.8" r="3.5" fill="#B33A3A"/>
<circle cx="383.7" cy="119.0" r="3.5" fill="#B33A3A"/>
<circle cx="414.1" cy="121.7" r="3.5" fill="#B33A3A"/>
<circle cx="444.4" cy="122.2" r="3.5" fill="#B33A3A"/>
<circle cx="474.8" cy="122.7" r="3.5" fill="#B33A3A"/>
<circle cx="505.2" cy="121.6" r="3.5" fill="#B33A3A"/>
<circle cx="535.6" cy="112.9" r="3.5" fill="#B33A3A"/>
<circle cx="565.9" cy="110.6" r="3.5" fill="#B33A3A"/>
<circle cx="596.3" cy="110.9" r="3.5" fill="#B33A3A"/>
<circle cx="626.7" cy="112.0" r="3.5" fill="#B33A3A"/>
<circle cx="657.0" cy="115.2" r="3.5" fill="#B33A3A"/>
<circle cx="687.4" cy="127.3" r="3.5" fill="#B33A3A"/>
<circle cx="717.8" cy="195.0" r="3.5" fill="#B33A3A"/>
<circle cx="748.1" cy="218.1" r="3.5" fill="#B33A3A"/>
<circle cx="778.5" cy="217.9" r="3.5" fill="#B33A3A"/>
<circle cx="808.9" cy="213.4" r="3.5" fill="#B33A3A"/>
<circle cx="839.3" cy="223.4" r="3.5" fill="#B33A3A"/>
<circle cx="869.6" cy="222.1" r="3.5" fill="#B33A3A"/>
<circle cx="900.0" cy="223.9" r="3.5" fill="#B33A3A"/>
<polyline points="80.0,109.4 110.4,111.0 140.7,109.5 171.1,108.9 201.5,109.4 231.9,107.5 262.2,111.3 292.6,119.7 323.0,106.8 353.3,110.2 383.7,113.8 414.1,117.6 444.4,117.5 474.8,119.6 505.2,121.0 535.6,111.6 565.9,111.0 596.3,110.6 626.7,114.8 657.0,133.6 687.4,138.8 717.8,224.0 748.1,336.0 778.5,362.8 808.9,358.6 839.3,360.3 869.6,359.0 900.0,354.7" fill="none" stroke="#7A5195" stroke-width="3"/>
<circle cx="80.0" cy="109.4" r="3.5" fill="#7A5195"/>
<circle cx="110.4" cy="111.0" r="3.5" fill="#7A5195"/>
<circle cx="140.7" cy="109.5" r="3.5" fill="#7A5195"/>
<circle cx="171.1" cy="108.9" r="3.5" fill="#7A5195"/>
<circle cx="201.5" cy="109.4" r="3.5" fill="#7A5195"/>
<circle cx="231.9" cy="107.5" r="3.5" fill="#7A5195"/>
<circle cx="262.2" cy="111.3" r="3.5" fill="#7A5195"/>
<circle cx="292.6" cy="119.7" r="3.5" fill="#7A5195"/>
<circle cx="323.0" cy="106.8" r="3.5" fill="#7A5195"/>
<circle cx="353.3" cy="110.2" r="3.5" fill="#7A5195"/>
<circle cx="383.7" cy="113.8" r="3.5" fill="#7A5195"/>
<circle cx="414.1" cy="117.6" r="3.5" fill="#7A5195"/>
<circle cx="444.4" cy="117.5" r="3.5" fill="#7A5195"/>
<circle cx="474.8" cy="119.6" r="3.5" fill="#7A5195"/>
<circle cx="505.2" cy="121.0" r="3.5" fill="#7A5195"/>
<circle cx="535.6" cy="111.6" r="3.5" fill="#7A5195"/>
<circle cx="565.9" cy="111.0" r="3.5" fill="#7A5195"/>
<circle cx="596.3" cy="110.6" r="3.5" fill="#7A5195"/>
<circle cx="626.7" cy="114.8" r="3.5" fill="#7A5195"/>
<circle cx="657.0" cy="133.6" r="3.5" fill="#7A5195"/>
<circle cx="687.4" cy="138.8" r="3.5" fill="#7A5195"/>
<circle cx="717.8" cy="224.0" r="3.5" fill="#7A5195"/>
<circle cx="748.1" cy="336.0" r="3.5" fill="#7A5195"/>
<circle cx="778.5" cy="362.8" r="3.5" fill="#7A5195"/>
<circle cx="808.9" cy="358.6" r="3.5" fill="#7A5195"/>
<circle cx="839.3" cy="360.3" r="3.5" fill="#7A5195"/>
<circle cx="869.6" cy="359.0" r="3.5" fill="#7A5195"/>
<circle cx="900.0" cy="354.7" r="3.5" fill="#7A5195"/>
<polyline points="80.0,109.1 110.4,110.6 140.7,109.7 171.1,109.0 201.5,109.4 231.9,118.0 262.2,119.8 292.6,122.5 323.0,117.4 353.3,115.6 383.7,117.2 414.1,114.7 444.4,120.2 474.8,122.7 505.2,120.1 535.6,111.6 565.9,112.9 596.3,112.3 626.7,114.4 657.0,135.9 687.4,141.1 717.8,240.5 748.1,383.4 778.5,413.2 808.9,412.2 839.3,405.3 869.6,404.3 900.0,388.6" fill="none" stroke="#4E79A7" stroke-width="3"/>
<circle cx="80.0" cy="109.1" r="3.5" fill="#4E79A7"/>
<circle cx="110.4" cy="110.6" r="3.5" fill="#4E79A7"/>
<circle cx="140.7" cy="109.7" r="3.5" fill="#4E79A7"/>
<circle cx="171.1" cy="109.0" r="3.5" fill="#4E79A7"/>
<circle cx="201.5" cy="109.4" r="3.5" fill="#4E79A7"/>
<circle cx="231.9" cy="118.0" r="3.5" fill="#4E79A7"/>
<circle cx="262.2" cy="119.8" r="3.5" fill="#4E79A7"/>
<circle cx="292.6" cy="122.5" r="3.5" fill="#4E79A7"/>
<circle cx="323.0" cy="117.4" r="3.5" fill="#4E79A7"/>
<circle cx="353.3" cy="115.6" r="3.5" fill="#4E79A7"/>
<circle cx="383.7" cy="117.2" r="3.5" fill="#4E79A7"/>
<circle cx="414.1" cy="114.7" r="3.5" fill="#4E79A7"/>
<circle cx="444.4" cy="120.2" r="3.5" fill="#4E79A7"/>
<circle cx="474.8" cy="122.7" r="3.5" fill="#4E79A7"/>
<circle cx="505.2" cy="120.1" r="3.5" fill="#4E79A7"/>
<circle cx="535.6" cy="111.6" r="3.5" fill="#4E79A7"/>
<circle cx="565.9" cy="112.9" r="3.5" fill="#4E79A7"/>
<circle cx="596.3" cy="112.3" r="3.5" fill="#4E79A7"/>
<circle cx="626.7" cy="114.4" r="3.5" fill="#4E79A7"/>
<circle cx="657.0" cy="135.9" r="3.5" fill="#4E79A7"/>
<circle cx="687.4" cy="141.1" r="3.5" fill="#4E79A7"/>
<circle cx="717.8" cy="240.5" r="3.5" fill="#4E79A7"/>
<circle cx="748.1" cy="383.4" r="3.5" fill="#4E79A7"/>
<circle cx="778.5" cy="413.2" r="3.5" fill="#4E79A7"/>
<circle cx="808.9" cy="412.2" r="3.5" fill="#4E79A7"/>
<circle cx="839.3" cy="405.3" r="3.5" fill="#4E79A7"/>
<circle cx="869.6" cy="404.3" r="3.5" fill="#4E79A7"/>
<circle cx="900.0" cy="388.6" r="3.5" fill="#4E79A7"/>
<line x1="80" y1="505" x2="104" y2="505" stroke="#B33A3A" stroke-width="3"/>
<text x="112" y="510" font-size="13" fill="#333">opinion_only</text>
<line x1="310" y1="505" x2="334" y2="505" stroke="#7A5195" stroke-width="3"/>
<text x="342" y="510" font-size="13" fill="#333">prefix_and_opinion</text>
<line x1="540" y1="505" x2="564" y2="505" stroke="#4E79A7" stroke-width="3"/>
<text x="572" y="510" font-size="13" fill="#333">plain</text>
</svg>